<?xml version="1.0" encoding="UTF-8" standalone="no"?>
<svg
   class="icon icon-tabler icon-tabler-rocket"
   width="24"
   height="24"
   viewBox="0 0 24 24"
   stroke-width="2"
   stroke="currentColor"
   fill="none"
   stroke-linecap="round"
   stroke-linejoin="round"
   version="1.1"
   id="svg10"
   sodipodi:docname="rocket.svg"
   inkscape:version="1.2.1 (9c6d41e410, 2022-07-14)"
   xmlns:inkscape="http://www.inkscape.org/namespaces/inkscape"
   xmlns:sodipodi="http://sodipodi.sourceforge.net/DTD/sodipodi-0.dtd"
   xmlns="http://www.w3.org/2000/svg"
   xmlns:svg="http://www.w3.org/2000/svg">
  <defs
     id="defs14" />
  <sodipodi:namedview
     id="namedview12"
     pagecolor="#ffffff"
     bordercolor="#000000"
     borderopacity="0.25"
     inkscape:showpageshadow="2"
     inkscape:pageopacity="0.0"
     inkscape:pagecheckerboard="0"
     inkscape:deskcolor="#d1d1d1"
     showgrid="false"
     inkscape:zoom="21.541667"
     inkscape:cx="11.72147"
     inkscape:cy="12.023211"
     inkscape:window-width="1366"
     inkscape:window-height="697"
     inkscape:window-x="-8"
     inkscape:window-y="-8"
     inkscape:window-maximized="1"
     inkscape:current-layer="svg10" />
  <path
     stroke="none"
     d="M0 0h24v24H0z"
     fill="none"
     id="path2" />
  <path
     d="M4 13a8 8 0 0 1 7 7a6 6 0 0 0 3 -5a9 9 0 0 0 6 -8a3 3 0 0 0 -3 -3a9 9 0 0 0 -8 6a6 6 0 0 0 -5 3"
     id="path4" />
  <path
     d="M7 14a6 6 0 0 0 -3 6a6 6 0 0 0 6 -3"
     id="path6" />
  <path
     d="M15 9m-1 0a1 1 0 1 0 2 0a1 1 0 1 0 -2 0"
     id="path8" />
  <path
     style="fill:#f9f9f9;stroke-width:0.0928433"
     d="M 3.8529981,20.962341 C 3.4789425,20.886864 3.1575622,20.60011 3.0569501,20.25206 2.9630574,19.927255 2.9776848,18.564138 3.0809921,18.011605 3.3172951,16.747753 3.875038,15.598566 4.7331388,14.607483 4.9172928,14.39479 5.0609411,14.214915 5.0523574,14.207761 5.0203122,14.181051 4.3755033,14.041496 4.0676352,13.994639 3.8920686,13.967917 3.6831711,13.918735 3.6034186,13.885346 3.4042602,13.801965 3.1266756,13.48254 3.0671779,13.268276 2.965157,12.900877 3.027876,12.689001 3.4037715,12.131206 4.2752953,10.837942 5.570002,9.8553173 7.0346424,9.3755369 7.3962087,9.2570966 8.1553063,9.0754352 8.28866,9.0754352 c 0.00844,0 0.1283596,-0.2245648 0.2664854,-0.4990329 C 8.8805478,7.9298001 9.1270208,7.5295802 9.5334457,6.9878528 11.102646,4.8962525 13.504463,3.4817379 16.117435,3.1103104 c 1.501081,-0.213375 2.630415,0.099269 3.574036,0.9894334 0.556827,0.5252822 0.907655,1.0977616 1.134748,1.8516719 0.402115,1.3349626 -0.16011,3.8523229 -1.273128,5.7004223 -0.992035,1.647211 -2.640202,3.134318 -4.301739,3.881366 -0.300223,0.134984 -0.349913,0.173794 -0.350007,0.273372 -1.86e-4,0.203225 -0.224725,1.052055 -0.395936,1.49682 -0.458078,1.189979 -1.299187,2.297994 -2.333991,3.074628 -0.577903,0.433722 -0.87418,0.581357 -1.166682,0.581357 -0.261312,0 -0.46424,-0.08264 -0.668455,-0.272224 C 10.137276,20.502411 10.078946,20.356216 9.9769021,19.786434 9.9255398,19.49964 9.8605044,19.187381 9.8323794,19.092525 l -0.051137,-0.172467 -0.2600602,0.23792 c -1.0494726,0.960123 -2.4020077,1.602734 -3.7881071,1.799789 -0.3647331,0.05185 -1.63051,0.05493 -1.8800773,0.0046 z m 1.8452442,-1.976437 c 1.072906,-0.203527 2.1890703,-0.831129 2.8196706,-1.585456 0.1245354,-0.14897 0.2541131,-0.304044 0.2879498,-0.34461 0.052899,-0.06342 0.027608,-0.118722 -0.1804479,-0.394584 C 8.3219378,16.258874 7.7273617,15.663762 7.3416286,15.376311 7.1795243,15.25551 7.0312614,15.156673 7.0121555,15.156673 c -0.096234,0 -0.7663502,0.640695 -1.0143486,0.969814 -0.6142822,0.815214 -0.9517635,1.661975 -1.0519762,2.63947 l -0.029745,0.290136 h 0.2060745 c 0.1133409,0 0.3725778,-0.03158 0.5760817,-0.07019 z m 6.4191117,-1.305498 c 0.490467,-0.709486 0.79283,-1.539399 0.881274,-2.418886 0.08096,-0.805116 0.215222,-0.992883 0.90466,-1.265234 1.0389,-0.410399 1.950672,-1.004383 2.743663,-1.787389 0.785487,-0.775596 1.340742,-1.589819 1.757515,-2.5772063 C 18.662316,9.0208132 18.911937,8.0600342 18.98633,7.3921324 19.03458,6.9589542 19.0318,6.8468583 18.96541,6.5484412 18.829823,5.9390166 18.421511,5.4387027 17.831646,5.1592204 17.5355,5.0189041 17.502811,5.0137155 16.943907,5.0183139 c -0.99211,0.00816 -1.945707,0.2614727 -3.040619,0.8076986 -0.760976,0.3796331 -1.3538,0.7916779 -1.947754,1.3537944 -0.749455,0.7092832 -1.404383,1.6386793 -1.788822,2.5384843 -0.3367739,0.7882438 -0.3846523,0.8850048 -0.4841701,0.9784968 -0.1739545,0.163421 -0.4998657,0.270176 -0.9234448,0.30248 -0.9786499,0.07464 -2.0906765,0.529995 -2.7823079,1.139314 -0.2220679,0.195639 -0.2703832,0.279213 -0.161417,0.279213 0.032497,0 0.2244702,0.06368 0.4266065,0.14152 2.1710779,0.836007 3.9091913,2.440008 4.9021013,4.523857 0.145985,0.306383 0.312634,0.698978 0.370331,0.872434 l 0.104904,0.315373 0.132926,-0.127351 c 0.07311,-0.07004 0.237409,-0.278493 0.365113,-0.463222 z"
     id="path258" />
  <path
     style="fill:#f9f9f9;stroke-width:0.0928433"
     d="m 14.529981,10.915588 c -0.57414,-0.156299 -1.041893,-0.541532 -1.303112,-1.0732192 -0.152054,-0.3094902 -0.159171,-0.3468505 -0.159171,-0.83559 0,-0.4795694 0.0093,-0.5313101 0.148949,-0.8260668 0.196752,-0.4153706 0.564688,-0.7826401 0.976564,-0.9747941 0.287907,-0.1343184 0.353434,-0.1464305 0.800986,-0.1480554 0.451984,-0.00164 0.509785,0.00882 0.794896,0.1439111 0.822416,0.3896669 1.296943,1.2372594 1.159299,2.0707223 -0.06759,0.4092568 -0.230124,0.7556731 -0.488918,1.0420361 -0.484005,0.535567 -1.270309,0.780508 -1.929493,0.601056 z"
     id="path260" />
</svg>
